# xmcd
#
# Track frame offsets:
#	150
#	16672
#	35850
#	55348
#	73099
#	86862
#	110567
#	128601
#	143355
#	163564
#	181737
#	200712
#	226596
#	239997
#	250495
#	268497
#	286612
#
# Disc length: 4084 seconds
#
# Revision: 3
# Processed by: cddbd v1.5.1PL2 Copyright (c) Steve Scherf et al.
# Submitted via: EasyCDDAExtractor 9.0.0.1
#
DISCID=f70ff211
DTITLE=Bonnie Prince Billy - Summer in the Southeast
DYEAR=2005
DGENRE=Americana
TTITLE0=Master and Everyone
TTITLE1=Pushkin
TTITLE2=Werner's Last Blues to Blokbuster
TTITLE3=Wolf Among Wolves
TTITLE4=May It Always Be
TTITLE5=Break of Day
TTITLE6=A Sucker's Evening
TTITLE7=Nomadic Revery (All Around)
TTITLE8=I See a Darkness
TTITLE9=O Let it Be
TTITLE10=Beast for Thee
TTITLE11=Death to Everyone
TTITLE12=Even if Love
TTITLE13=I Send my Love to You
TTITLE14=Take However Long You Want
TTITLE15=Madeleine Mary
TTITLE16=Ease Down the Road
EXTD=
EXTT0=
EXTT1=
EXTT2=
EXTT3=
EXTT4=
EXTT5=
EXTT6=
EXTT7=
EXTT8=
EXTT9=
EXTT10=
EXTT11=
EXTT12=
EXTT13=
EXTT14=
EXTT15=
EXTT16=
PLAYORDER=
